Pawn 2013 BRRip 720p x264 AAC - PRiSTiNE


Genre: Crime | Thriller
Plot: A petty robbery spirals into a tense hostage situation after three gunmen hold up a diner
that's a front for the mob.
Director: David A. Armstrong
Stars: Ronald Guttman, Ray Liotta, Max Beesley.
Rated: R for violence, language and brief drug content.

Info: 
http://www.imdb.com/title/tt1551630/

Trailer:


Format                         : MPEG-4
File size                      : 501 MiB
Duration                       : 1h 28mn
Overall bit rate               : 792 Kbps
Video Format                   : AVC
Video Bit rate                 : 710 Kbps
Width                          : 1 280 pixels
Height                         : 528 pixels
Display aspect ratio           : 2.40:1
Frame rate mode                : Constant
Frame rate                     : 23.976 fps
Stream size                    : 448 MiB (90%)
Writing library                : x264 core 130 r2273
Audio Format                   : AAC
Bit rate mode                  : Variable
Audio Bit rate                 : 79.9 Kbps
Channel(s)                     : 2 channels
Channel positions              : Front: L R
Sampling rate                  : 48.0 KHz
Stream size                    : 50.5 MiB (10%)
Language                       : English
Subtitle                       : N/a
Source                         : BluRay.720p.x264-CHD(Thanks)

Screenshots:
 
http://www.ultraimg.com/images/tTvIz.png 
http://www.ultraimg.com/images/ExfTc.png 
http://www.ultraimg.com/images/gzy1R.png 
http://www.ultraimg.com/images/VIFUx.png 
http://www.ultraimg.com/images/yfudq.png 
http://www.ultraimg.com/images/yhFcC.png


----------------------------------------------------------------------------------------------------


Encoded using revolutionary 10bit encoding, which enables us to provide you more crispier 
and sharper images at small sizes, just make sure you follow our instructions without a fault.
Recommend to you to use latest version of VLC player. Install K-Lite Codec Pack or shark007 codecs
in case of any kind of problem in playback (For non-VLC Media Player users). Alternatively, install
Core AVC codecs, the fastest decoder that there is coupled with Community Center Codec Pack and play
on Windows Media Player Classic. Check sample to be sure.
Enjoy!

Encoder Notes:Looking For Early Access To Anything You Can Provide DVDScr, R5, DVDR, BluRay, Direct
Audio, Music Releases and Seedboxes. We require dedicated servers, so as to do more 
and fast releases of movies.
If You Got anything to offer please contact us at "prg@hush.com".

Face book Fan Page:   
http://www.fb.me/p2pdl